<?xml version="1.0" encoding="UTF-8"?>
<svg id="Layer_1" data-name="Layer 1" xmlns="http://www.w3.org/2000/svg" viewBox="0 0 67 47">
  <defs>
    <style>
      .cls-1 {
        fill: #fff;
        stroke-width: 0px;
      }
    </style>
  </defs>
  <g id="Layer_1-2" data-name="Layer 1">
    <path id="supercharge" class="cls-1" d="m22.1,30.3l6.9.1c.3,0,.5.1.7.3.2.2.2.5.2.7l-2.4,9.4,9.4-14.5c.2-.3.5-.4.9-.4l5.8.9-2.7-2.7c-.2-.2-.3-.4-.2-.7l.4-2.8-3.1,2.3c-.3.2-.7.2-1.1,0l-3.4-2.2.2,2.7c0,.2-.1.5-.3.7s-.5.3-.7.2l-2.8-.3,3.7,2.5c.3.2.4.6.3,1-.1.3-.5.6-.9.6h-8.5l-2.4,2.2h0Zm3.2,16.3c-.1,0-.2,0-.3-.1-.4-.2-.6-.6-.5-1l3.4-13.5-8-.1c-.4,0-.7-.2-.8-.5-.1-.3,0-.7.2-.9l2.7-2.4h-13.4c-.5,0-.9-.4-.9-.9s.4-.9.9-.9h15.3l1-.8-11.9-4.7c-.4-.2-.6-.6-.5-1s.5-.7.9-.7h0l13.5.2-2.6-8.2c-.1-.3,0-.7.3-.9s.7-.2,1,0l8.1,5.2-.2-14.2c0-.4.3-.8.7-.9.4-.1.9.1,1,.5l5.5,14.2,9.7-7.7c.3-.2.8-.3,1.1,0,.3.2.4.7.3,1l-5.3,11.5,9.5-1.2c.4,0,.8.2,1,.6.1.4,0,.8-.4,1l-7.5,4.5,9.6,5.2c.4.2.5.6.4,1s-.5.6-.9.6h0l-11.1-.2,7.9,14.1c.2.4.1.8-.2,1.1s-.8.2-1.1,0l-14.7-13c-.4-.3-.4-.9,0-1.2.3-.3.9-.4,1.3,0l10.7,9.4-6-10.9c-.1-.3-.1-.6,0-.8.2-.3.5-.4.8-.4l9.1.2-7.9-4.3c-.3-.1-.4-.4-.5-.7,0-.3.1-.6.4-.7l5.3-3.2-7.1.9c-.3,0-.6-.1-.8-.3s-.2-.6-.1-.9l4.4-9.6-7.8,6.1c-.2.2-.5.2-.8.2-.3-.1-.5-.3-.6-.5l-4.1-10.7.2,10.8c0,.3-.2.6-.5.8-.3.1-.6.1-.9,0l-7.4-4.7,2.3,7c.1.3,0,.5-.1.8-.3.1-.6.2-.9.2l-10.2-.1,8.9,3.6c.3.1.5.3.5.6s0,.6-.3.8l-.6.5h3.8l-4.2-2.9c-.3-.2-.5-.6-.3-1,.1-.4.5-.6.9-.5l5.1.5v-3.5c0-.3.1-.6.4-.8.3-.2.7-.1,1,0l4.4,2.9,4.3-3.2c.3-.2.7-.2,1-.1.3.2.5.5.4.9l-.6,4.4,4.2,4.3c.3.3.3.7.1,1s-.5.5-.9.4l-7.8-1.1-12.1,18.5c-.1.2-.4.4-.7.4"/>
  </g>
</svg>