<?xml version="1.0" encoding="UTF-8"?>
<svg id="Layer_1" data-name="Layer 1" xmlns="http://www.w3.org/2000/svg" viewBox="0 0 67 47">
  <defs>
    <style>
      .cls-1 {
        fill: #fff;
        stroke-width: 0px;
      }
    </style>
  </defs>
  <g id="Layer_1-2" data-name="Layer 1">
    <path id="catalyze" class="cls-1" d="m24.2,24.7h2.9c0-.2-.1-.4-.1-.6h-2.8v.6m13.6,7l1.8,2.1,1.5-1.1-1.6-2c-.3-.3-.2-.8.1-1.1.8-.8,1.4-1.7,1.8-2.7.1-.3.5-.5.8-.5l3.2.2.2-1.8-2.6-.2c-.2,0-.4-.1-.6-.3-.1-.2-.2-.4-.2-.6v-.7c0-1.1-.2-2.2-.6-3.3-.1-.4,0-.8.3-1l2.3-1.6-.9-1.6-2.4,1.5c-.3.2-.8.2-1.1-.2-.9-1-1.9-1.7-3-2.3-.3-.2-.5-.5-.5-.8l.2-2.9-1.8-.2-.3,2.4c-.1.4-.4.8-.9.7h-.6c-1.4,0-2.7.3-3.9.9-.4.2-.8.1-1-.2l-1.6-2.1-1.4,1,1.5,2.2c.2.3.2.8-.1,1.1l-.1.1h6.8c3.6,0,6.5,2.9,6.5,6.6,0,.9-.2,1.8-.6,2.7-.1.3-.4.5-.8.5h-8.4c.8.9,2,1.4,3.3,1.4.5,0,.8.4.8.8v3.5c1-.1,2-.4,2.9-.8.4-.1.8,0,1,.3m-4.6,14.7c-1.3,0-2.6-.1-3.9-.3-.4-.1-.7-.4-.7-.8v-12c-1.1-.5-2-1.2-2.9-2l-2.4,1.6c-.1.1-.3.1-.5.1-.2-.1-.4-.2-.5-.4l-1.8-3c-.2-.4-.1-.9.2-1.1l2.3-1.6c0-.1-.1-.3-.1-.4h-10.9c-.5,0-.8-.4-.8-.8,0-.5.4-.8.8-.8h10.5c-.1-.5-.1-.9-.1-1.4s.4-.8.8-.8h4.4c.5,0,.8.4.8.8,0,.5.1,1,.2,1.4h8.9c.2-.5.2-1,.2-1.5,0-2.7-2.2-4.9-4.8-4.9h-8.4c-.3,0-.6-.2-.7-.4-.2-.3-.1-.6,0-.9.3-.4.6-.8.9-1.2l-1.6-2.3c-.1-.3-.2-.5-.1-.7,0-.2.2-.4.3-.5l2.9-2c.4-.2.9-.2,1.1.2l1.7,2.2c1.2-.5,2.5-.8,3.9-.8l.3-2.5c.1-.5.5-.8.9-.7l3.4.4c.4.1.8.5.7.9l-.2,3.2c.9.5,1.8,1.1,2.6,1.9l2.4-1.5c.2-.1.4-.2.6-.1.2.1.4.2.5.4l1.8,3c.2.4.1.9-.2,1.1l-2.4,1.7c.3,1,.5,2.1.5,3.2l2.7.2c.2,0,.4.1.6.3.2.2.2.4.2.6l-.3,3.5c0,.5-.4.8-.9.8l-3.5-.2c-.4.8-.9,1.5-1.4,2.1l1.7,2.1c.1,0,.1.2.1.5,0,.2-.1.4-.3.6l-2.7,2.1c-.3.3-.9.2-1.1-.1l-2-2.3c-1.3.4-2.6.7-3.9.7-.5,0-.8-.4-.8-.8v-3.6c-1.9-.3-3.6-1.4-4.5-3.1h-3.1v.1l.1.1c.2.4.1.9-.2,1.1l-2.2,1.6,1,1.6,2.2-1.5c.3-.2.8-.2,1.1.1.9,1,2,1.8,3.3,2.3.3.1.5.4.5.8v11.8c1,.1,1.9.2,2.9.2,11.6,0,21-9.5,21-21.3S44.9,2.1,33.3,2.1c-8.8,0-16.7,5.6-19.7,14.1-.2.4-.6.7-1.1.5-.4-.2-.7-.6-.5-1.1C15.2,6.6,23.7.5,33.2.5c12.5,0,22.6,10.3,22.6,23s-10.1,23-22.6,22.9"/>
  </g>
</svg>