<?xml version="1.0" encoding="UTF-8"?><svg id="Layer_1" xmlns="http://www.w3.org/2000/svg" viewBox="0 0 67 47"><defs><style>.cls-1{fill:#fff;stroke-width:0px;}</style></defs><path id="supercharge" class="cls-1" d="M22.12,30.35l6.9.06c.27,0,.53.12.69.32.17.21.22.47.16.72l-2.37,9.38,9.44-14.46c.19-.28.54-.44.89-.4l5.8.85-2.72-2.74c-.19-.19-.27-.44-.23-.7l.4-2.78-3.14,2.29c-.31.22-.73.23-1.05.02l-3.37-2.22.23,2.74c.02.25-.07.51-.27.68-.19.17-.46.26-.72.23l-2.81-.3,3.68,2.55c.31.22.44.61.32.95-.12.35-.46.59-.85.59h0l-8.49-.02-2.5,2.24h.01ZM25.33,46.61c-.11,0-.23-.02-.35-.06-.41-.16-.63-.58-.52-.99l3.4-13.46-8-.07c-.36,0-.69-.22-.82-.54-.14-.32-.05-.69.22-.93l2.74-2.45-13.42-.04c-.49,0-.89-.38-.89-.85s.4-.85.89-.85h0l15.33.04.95-.84-11.88-4.8c-.4-.16-.62-.56-.53-.96.09-.4.46-.68.88-.68h.01l13.5.19-2.63-8.19c-.11-.35.01-.72.32-.94.3-.21.72-.22,1.03-.02l8.11,5.17-.22-14.08c0-.41.3-.77.73-.85.43-.07.85.15,1,.53l5.5,14.05,9.73-7.65c.32-.25.78-.26,1.1-.02.33.23.44.67.28,1.03l-5.28,11.48,9.53-1.21c.42-.05.82.17.95.56.15.37,0,.79-.36,1.01l-7.46,4.52,9.6,5.22c.36.2.53.59.42.96s-.46.63-.87.63h-.01l-11.12-.21,7.82,14.06c.21.37.1.83-.25,1.08-.35.26-.83.23-1.15-.05l-14.7-13.04c-.36-.32-.38-.87-.05-1.2.33-.35.9-.37,1.26-.05l10.81,9.59-6.04-10.88c-.15-.27-.14-.59.02-.84.16-.26.46-.42.78-.41l9.12.17-7.84-4.25c-.27-.15-.44-.42-.46-.72,0-.3.15-.58.42-.74l5.29-3.21-7.08.9c-.32.04-.63-.09-.83-.33s-.23-.57-.1-.85l4.41-9.59-7.81,6.13c-.22.17-.52.23-.8.16-.28-.07-.51-.26-.61-.52l-4.14-10.57.17,10.78c0,.32-.17.61-.47.75s-.64.14-.93-.04l-7.43-4.73,2.26,7.02c.09.26.04.54-.14.77-.17.22-.44.33-.73.33l-10.16-.14,8.94,3.61c.28.11.48.35.53.63.05.28-.05.58-.27.77l-.57.51h3.83l-4.18-2.88c-.32-.22-.46-.63-.31-1,.15-.36.53-.58.93-.54l5.08.53-.3-3.51c-.02-.33.15-.64.44-.8s.67-.15.95.04l4.39,2.9,4.34-3.15c.28-.21.68-.23.99-.06s.48.51.43.85l-.63,4.41,4.2,4.25c.26.26.32.66.14.98-.17.32-.54.51-.93.44l-7.79-1.14-12.05,18.45c-.17.26-.46.41-.75.41"/></svg>