<?xml version="1.0" encoding="UTF-8"?><svg id="Layer_1" xmlns="http://www.w3.org/2000/svg" viewBox="0 0 67 47"><defs><style>.cls-1{fill:#fff;stroke-width:0px;}</style></defs><path id="catalyze" class="cls-1" d="M24.2,24.75h2.87c-.04-.19-.08-.38-.11-.58h-2.81c.01.19.04.4.05.58M37.8,31.74l1.8,2.1,1.45-1.14-1.62-2.02c-.26-.33-.25-.82.05-1.12.77-.78,1.39-1.69,1.84-2.69.14-.32.47-.51.8-.49l3.25.19.18-1.82-2.65-.16c-.22-.01-.43-.12-.58-.29-.14-.16-.22-.38-.21-.62.01-.23.03-.47.03-.7,0-1.14-.19-2.24-.59-3.29-.14-.36,0-.77.3-.99l2.28-1.58-.95-1.59-2.28,1.45c-.34.22-.8.15-1.06-.15-.85-.97-1.85-1.73-3-2.28-.32-.15-.49-.47-.48-.82l.19-2.95-1.84-.22-.29,2.41c-.05.44-.44.77-.88.74-.18,0-.37-.01-.56-.01-1.36,0-2.66.29-3.88.88-.36.18-.78.08-1.03-.23l-1.6-2.11-1.51,1.06,1.54,2.17c.25.34.19.82-.11,1.11-.04.04-.08.1-.12.14h6.77c3.57,0,6.47,2.93,6.47,6.55,0,.93-.19,1.84-.56,2.69-.14.3-.43.49-.75.49h-8.45c.82.89,1.97,1.44,3.26,1.44.45,0,.82.37.82.84v3.54c1.01-.1,2-.36,2.95-.78.37-.16.8-.04,1.01.29M33.25,46.4c-1.29,0-2.59-.11-3.85-.33-.4-.07-.69-.41-.69-.82v-11.99c-1.06-.49-2.04-1.17-2.88-1.99l-2.4,1.58c-.18.12-.41.16-.63.11-.22-.05-.4-.18-.52-.37l-1.84-2.98c-.23-.37-.14-.88.22-1.14l2.29-1.65c-.04-.14-.08-.27-.12-.41h-10.85c-.45,0-.82-.37-.82-.84s.37-.84.82-.84h10.53c-.05-.45-.07-.93-.07-1.43,0-.47.37-.84.82-.84h4.44c.45,0,.82.37.82.84,0,.49.08.97.22,1.43h8.86c.15-.48.23-.99.23-1.49,0-2.69-2.15-4.88-4.81-4.88h-8.45c-.3,0-.58-.16-.73-.43-.15-.27-.14-.59.03-.85.26-.43.56-.82.88-1.21l-1.63-2.3c-.12-.18-.18-.41-.14-.63s.16-.43.34-.55l2.85-1.99c.36-.25.85-.18,1.12.18l1.69,2.22c1.23-.51,2.54-.75,3.88-.78l.3-2.5c.05-.45.47-.78.92-.73l3.44.43c.44.05.75.45.73.89l-.21,3.18c.95.51,1.8,1.14,2.55,1.91l2.41-1.54c.19-.12.41-.15.63-.11.22.05.4.19.52.38l1.78,3c.23.38.12.88-.25,1.12l-2.4,1.67c.32,1.04.48,2.13.48,3.24l2.7.18c.22.01.44.12.58.29.15.18.22.4.19.63l-.34,3.5c-.04.45-.43.78-.88.75l-3.5-.21c-.38.75-.86,1.45-1.41,2.1l1.69,2.11c.14.18.21.4.18.62s-.14.43-.32.56l-2.73,2.15c-.34.27-.85.22-1.12-.11l-1.97-2.3c-1.23.48-2.54.73-3.88.73-.45,0-.82-.37-.82-.84v-3.63c-1.92-.26-3.55-1.44-4.48-3.07h-3.14s.03.08.04.14c.03.04.05.07.1.12.23.38.14.88-.22,1.14l-2.22,1.59.97,1.58,2.25-1.48c.34-.22.78-.16,1.06.14.92,1,2.04,1.8,3.28,2.3.32.12.52.44.52.78v11.82c.97.14,1.93.21,2.91.21,11.56,0,20.97-9.54,20.97-21.28S44.77,2.22,33.21,2.22c-8.8,0-16.74,5.65-19.72,14.06-.15.44-.63.66-1.06.51-.43-.16-.66-.64-.49-1.07C15.16,6.65,23.72.54,33.22.54c12.48,0,22.63,10.3,22.63,22.96s-10.15,22.96-22.63,22.96"/></svg>