<?xml version="1.0" encoding="UTF-8"?><svg id="Layer_1" xmlns="http://www.w3.org/2000/svg" viewBox="0 0 67 47"><defs><style>.cls-1{fill:none;stroke:#fff;stroke-linecap:round;stroke-linejoin:round;stroke-width:1.5px;}</style></defs><g id="connect"><path class="cls-1" d="M51.62,26.09l-9.57-9.44M33.41,32.64l1.63,1.57,1.66-1.27s7.88,6.15,14.99-2.28l1.48,1.52,2.41-2.24-3.98-3.9,5.02-4.58c.35-.32.64-.71.84-1.13.27-.62.41-1.47-.31-2.18,0,0-.98-.98-2.66.27-1.69,1.25-5.52,5.1-5.52,5.1M1,22.06h18.56C20.36,10.38,30.35,1.13,42.7,1.13s23.3,10.02,23.3,22.37-10.43,22.37-23.3,22.37c-6.66,0-12.73-2.88-16.98-7.2l-.1-.12,7.83-5.91-1.34-1.6,1.66-1.27s-5.52-7.2,3.57-13.45l-1.49-1.44,2.36-2.27,3.82,3.99,5.02-4.83c.35-.33.75-.61,1.2-.79.64-.24,1.53-.37,2.27.33,0,0,1,.97-.33,2.56-1.33,1.6-5.47,5.36-5.47,5.36l4.15,4.07"/></g></svg>