<svg width="284" height="306" viewBox="0 0 284 306" fill="none" xmlns="http://www.w3.org/2000/svg">
<path d="M258.971 163.963L258.974 163.974C259.919 168.981 260.422 173.948 260.422 178.813C260.406 198.757 249.896 218.382 233.043 236.048C216.199 253.704 193.106 269.308 168.152 281.191C143.199 293.073 116.437 301.209 92.2843 303.966C68.0986 306.726 46.6895 304.076 32.2954 294.581L32.295 294.58C17.879 285.078 6.47807 266.966 -1.22512 244.339C-8.91963 221.738 -12.8796 194.76 -12.5105 167.702C-12.1414 140.642 -7.44361 113.553 2.13399 90.7193C11.7125 67.8831 26.1398 49.3711 45.9308 39.3246L45.4782 38.4329L45.9308 39.3246C80.6082 21.7203 125.965 30.6511 166.184 53.267C206.38 75.8706 241.119 111.974 254.525 148.188L254.546 148.244L254.574 148.298C256.256 151.566 257.542 155.902 258.971 163.963Z" stroke="#4C599E" stroke-width="2"/>
<path d="M281.549 134.936L281.551 134.947C282.496 139.953 282.999 144.92 282.999 149.785C282.983 169.73 272.473 189.355 255.62 207.021C238.776 224.676 215.683 240.281 190.729 252.163C165.776 264.045 139.014 272.181 114.861 274.938C90.6757 277.699 69.2666 275.049 54.8725 265.553L54.8722 265.553C40.4561 256.051 29.0552 237.939 21.352 215.312C13.6575 192.711 9.69754 165.733 10.0666 138.674C10.4357 111.615 15.1335 84.5261 24.7111 61.692C34.2896 38.8558 48.7169 20.3437 68.508 10.2972L68.0553 9.40554L68.508 10.2972C103.185 -7.30703 148.543 1.62373 188.761 24.2396C228.957 46.8432 263.696 82.9463 277.103 119.16L277.124 119.217L277.151 119.271C278.833 122.539 280.119 126.874 281.549 134.936Z" stroke="#00ABE6" stroke-width="2"/>
</svg>
