<svg width="299" height="121" viewBox="0 0 299 121" fill="none" xmlns="http://www.w3.org/2000/svg">
<g clip-path="url(#clip0_295_1447)">
<path d="M86.2816 40.8221L83.8162 33.2803H84.8707L86.0489 36.9966C86.3689 38.0148 86.6525 38.9312 86.8562 39.8185H86.878C87.0889 38.9457 87.4016 37.993 87.7435 37.0112L89.0162 33.2803H90.0562L87.358 40.8221H86.2816Z" fill="white"/>
<path d="M92.8348 33.2803V36.4366H96.4858V33.2803H97.4676V40.8221H96.4858V37.2875H92.8348V40.8221H91.8603V33.2803H92.8348Z" fill="white"/>
<path d="M101.366 38.4512L100.581 40.8221H99.5771L102.137 33.2803H103.315L105.89 40.8221H104.85L104.043 38.4512H101.366ZM103.839 37.6948L103.097 35.5203C102.93 35.0257 102.821 34.5821 102.704 34.1457H102.683C102.566 34.5894 102.45 35.0548 102.304 35.513L101.563 37.6948H103.832H103.839Z" fill="white"/>
<path d="M111.345 33.3817C111.941 33.2944 112.647 33.2217 113.418 33.2217C114.814 33.2217 115.811 33.549 116.472 34.1599C117.141 34.778 117.534 35.6508 117.534 36.8653C117.534 38.0799 117.156 39.1053 116.451 39.7962C115.745 40.5017 114.581 40.8799 113.112 40.8799C112.421 40.8799 111.84 40.8435 111.345 40.7926V33.3744V33.3817ZM112.32 40.0508C112.567 40.0944 112.923 40.109 113.309 40.109C115.389 40.109 116.523 38.9453 116.523 36.909C116.538 35.1271 115.527 33.9999 113.469 33.9999C112.967 33.9999 112.581 34.0435 112.327 34.1017V40.058L112.32 40.0508Z" fill="white"/>
<path d="M120.757 33.2803V40.8221H119.782V33.2803H120.757Z" fill="white"/>
<path d="M123.44 33.2803H127.506V34.0948H124.415V36.6039H127.273V37.4112H124.415V40.8221H123.44V33.2803Z" fill="white"/>
<path d="M129.884 33.2803H133.95V34.0948H130.859V36.6039H133.717V37.4112H130.859V40.8221H129.884V33.2803Z" fill="white"/>
<path d="M137.288 33.2803V37.7457C137.288 39.433 138.038 40.153 139.048 40.153C140.168 40.153 140.881 39.4112 140.881 37.7457V33.2803H141.863V37.6803C141.863 40.0003 140.641 40.9457 139.012 40.9457C137.47 40.9457 136.307 40.0585 136.307 37.7239V33.2803H137.288Z" fill="white"/>
<path d="M144.416 39.6363C144.853 39.9053 145.493 40.1308 146.162 40.1308C147.158 40.1308 147.74 39.6072 147.74 38.8435C147.74 38.1381 147.34 37.7381 146.314 37.3453C145.085 36.909 144.322 36.269 144.322 35.2072C144.322 34.029 145.296 33.1562 146.758 33.1562C147.529 33.1562 148.089 33.3381 148.423 33.5272L148.154 34.3199C147.907 34.189 147.405 33.9635 146.722 33.9635C145.689 33.9635 145.296 34.5817 145.296 35.0908C145.296 35.7963 145.754 36.1453 146.794 36.5453C148.067 37.0399 148.722 37.6508 148.722 38.7635C148.722 39.9272 147.856 40.9308 146.082 40.9308C145.354 40.9308 144.562 40.7199 144.154 40.4508L144.402 39.6363H144.416Z" fill="white"/>
<path d="M152.024 33.2803V40.8221H151.049V33.2803H152.024Z" fill="white"/>
<path d="M161.159 36.9744C161.159 39.5708 159.58 40.9453 157.653 40.9453C155.726 40.9453 154.264 39.4035 154.264 37.1199C154.264 34.8362 155.755 33.1562 157.77 33.1562C159.784 33.1562 161.159 34.7344 161.159 36.9744ZM155.304 37.0981C155.304 38.7126 156.177 40.1526 157.711 40.1526C159.246 40.1526 160.126 38.7272 160.126 37.0181C160.126 35.5199 159.34 33.949 157.719 33.949C156.097 33.949 155.297 35.4399 155.297 37.0908L155.304 37.0981Z" fill="white"/>
<path d="M163.414 40.8221V33.2803H164.476L166.89 37.0985C167.45 37.9857 167.886 38.7785 168.243 39.5494H168.265C168.177 38.5312 168.156 37.6148 168.156 36.4366V33.2803H169.072V40.8221H168.083L165.69 36.9966C165.166 36.1603 164.657 35.2948 164.279 34.4803H164.243C164.301 35.4403 164.323 36.3494 164.323 37.6003V40.8221H163.406H163.414Z" fill="white"/>
<path d="M181.567 36.9744C181.567 39.5708 179.989 40.9453 178.062 40.9453C176.134 40.9453 174.673 39.4035 174.673 37.1199C174.673 34.8362 176.164 33.1562 178.178 33.1562C180.193 33.1562 181.567 34.7344 181.567 36.9744ZM175.713 37.0981C175.713 38.7126 176.585 40.1526 178.12 40.1526C179.654 40.1526 180.534 38.7272 180.534 37.0181C180.534 35.5199 179.749 33.949 178.127 33.949C176.505 33.949 175.705 35.4399 175.705 37.0908L175.713 37.0981Z" fill="white"/>
<path d="M183.822 33.2803H187.888V34.0948H184.797V36.6039H187.655V37.4112H184.797V40.8221H183.822V33.2803Z" fill="white"/>
<path d="M197.525 37.2875H194.594V40.0075H197.859V40.8221H193.619V33.2803H197.692V34.0948H194.594V36.4803H197.525V37.2875Z" fill="white"/>
<path d="M204.245 40.8225L203.285 39.1571C202.892 38.5171 202.645 38.1025 202.412 37.6662H202.39C202.18 38.1025 201.961 38.5025 201.576 39.1643L200.667 40.8225H199.547L201.852 37.0043L199.634 33.2734H200.769L201.765 35.0407C202.041 35.5353 202.26 35.9134 202.456 36.3134H202.492C202.703 35.8698 202.892 35.5207 203.176 35.0407L204.209 33.2734H205.329L203.03 36.9462L205.38 40.8153H204.252L204.245 40.8225Z" fill="white"/>
<path d="M212.434 40.5749C212.078 40.7567 211.358 40.9312 210.442 40.9312C208.318 40.9312 206.718 39.5858 206.718 37.113C206.718 34.6403 208.318 33.1494 210.66 33.1494C211.598 33.1494 212.194 33.353 212.449 33.484L212.216 34.2767C211.845 34.1021 211.322 33.964 210.696 33.964C208.929 33.964 207.751 35.0912 207.751 37.0767C207.751 38.924 208.813 40.1094 210.653 40.1094C211.249 40.1094 211.853 39.9858 212.238 39.7967L212.442 40.5676L212.434 40.5749Z" fill="white"/>
<path d="M218.552 37.2875H215.621V40.0075H218.886V40.8221H214.646V33.2803H218.719V34.0948H215.621V36.4803H218.552V37.2875Z" fill="white"/>
<path d="M221.134 33.2803H222.108V40.0075H225.33V40.8221H221.134V33.2803Z" fill="white"/>
<path d="M227.403 33.2803H228.378V40.0075H231.6V40.8221H227.403V33.2803Z" fill="white"/>
<path d="M237.578 37.2875H234.647V40.0075H237.913V40.8221H233.673V33.2803H237.745V34.0948H234.647V36.4803H237.578V37.2875Z" fill="white"/>
<path d="M240.168 40.8221V33.2803H241.229L243.644 37.0985C244.204 37.9857 244.64 38.7785 244.997 39.5494H245.018C244.931 38.5312 244.909 37.6148 244.909 36.4366V33.2803H245.826V40.8221H244.837L242.444 36.9966C241.92 36.1603 241.411 35.2948 241.033 34.4803H240.997C241.055 35.4403 241.077 36.3494 241.077 37.6003V40.8221H240.16H240.168Z" fill="white"/>
<path d="M253.79 40.5749C253.433 40.7567 252.714 40.9312 251.797 40.9312C249.674 40.9312 248.073 39.5858 248.073 37.113C248.073 34.6403 249.673 33.1494 252.015 33.1494C252.953 33.1494 253.55 33.353 253.804 33.484L253.572 34.2767C253.201 34.1021 252.677 33.964 252.052 33.964C250.284 33.964 249.106 35.0912 249.106 37.0767C249.106 38.924 250.168 40.1094 252.008 40.1094C252.604 40.1094 253.208 39.9858 253.594 39.7967L253.797 40.5676L253.79 40.5749Z" fill="white"/>
<path d="M259.906 37.2875H256.976V40.0075H260.241V40.8221H256.001V33.2803H260.074V34.0948H256.976V36.4803H259.906V37.2875Z" fill="white"/>
<path d="M82.2091 3.37908L82.4927 23.3439L75.7941 19.6564L80.4853 7.10294L71.0447 18.5873L66.2299 18.4418L82.2091 3.37908ZM66.3972 33.2572C66.6299 34.4864 66.7536 35.7083 66.7536 36.9084C66.7318 56.6477 25.2456 74.6634 10.9902 65.2519C-3.26521 55.8331 -5.15623 12.6887 14.3286 2.78268C31.3842 -5.88693 58.7531 11.6341 65.3062 29.3734C60.9278 35.6937 53.3273 46.0653 42.5267 50.0146C39.6392 51.0692 37.1591 50.9674 35.5371 49.7237C34.0898 48.6182 33.4134 46.698 33.5807 44.1597C42.5994 38.363 49.4362 30.9153 50.2289 26.0132C50.5271 24.1876 50.0326 22.4857 48.847 21.2056C47.6251 19.8892 45.8214 19.2128 44.0322 19.38C34.6789 20.2746 26.5402 33.2354 26.3075 43.3451C22.4745 45.3016 19.398 46.3417 17.1506 46.4289C16.2487 46.4653 15.6087 46.2107 15.1868 45.658C14.2631 44.4434 14.3868 41.7159 15.5141 38.1812C16.8451 34.0064 19.078 30.428 20.8672 27.5551C22.5764 24.8204 23.7037 23.0094 23.2309 21.9184C22.8455 21.0165 21.5654 20.2965 20.1253 20.1583C19.078 20.0637 16.4378 20.1583 14.4159 23.1694C8.16094 32.5081 5.96444 41.425 8.55369 47.0108C9.61557 49.3018 11.4484 50.7492 13.5867 50.9747C17.136 51.3601 21.7108 50.2983 26.8384 47.8981C27.2385 49.3309 27.8567 50.5819 28.6858 51.622C29.8495 53.0912 32.1697 54.284 35.1662 54.7422C39.1665 55.3604 44.374 54.6622 49.6325 51.542C56.3602 47.5563 61.4951 40.9668 64.6225 36.1447C65.2698 35.1483 65.8662 34.1664 66.4117 33.2281L66.3972 33.2572ZM22.3145 15.6562C22.8018 16.1217 23.4419 16.4199 24.1546 16.5362C24.4747 16.5871 24.8019 16.5944 25.1438 16.5653C26.2493 16.4708 27.2821 15.9689 28.0531 15.1616C29.1295 14.0343 29.6968 12.7833 29.6604 11.6414C29.6313 10.7395 29.224 9.9322 28.4676 9.24125C27.0566 7.9539 24.271 8.35393 22.6345 10.0777C21.8636 10.885 21.3981 11.9105 21.3326 12.9433C21.2599 14.0124 21.6163 14.9725 22.3218 15.6562H22.3145ZM44.985 24.3403C44.9123 24.2967 44.8322 24.2676 44.7377 24.2531C44.5486 24.224 44.3231 24.2603 44.054 24.3622C42.7739 24.8495 40.9629 26.7114 39.2246 29.3297C37.4863 31.9481 35.9808 35.0537 34.9335 38.1884C41.6684 33.5627 45.625 28.1733 45.5814 25.555C45.5741 24.9877 45.3777 24.5876 44.9777 24.3403H44.985Z" fill="white"/>
<path d="M81.4014 48.3719C82.8342 48.1319 84.6671 48.001 86.609 48.001C89.9546 48.001 92.2675 48.6919 93.9112 50.0738C95.635 51.4848 96.6969 53.6086 96.6969 56.6633C96.6969 59.7181 95.6059 62.2418 93.9112 63.7838C92.1293 65.4057 89.2928 66.2275 85.8089 66.2275C83.8961 66.2275 82.4633 66.1184 81.4014 65.9875V48.3792V48.3719ZM84.6671 63.5365C85.118 63.6165 85.8089 63.6165 86.4708 63.6165C90.7183 63.6456 93.2421 61.3036 93.2421 56.7651C93.2712 52.8085 90.9874 50.5539 86.8926 50.5539C85.8598 50.5539 85.1107 50.6339 84.6598 50.743V63.5437L84.6671 63.5365Z" fill="white"/>
<path d="M102.966 49.4919C102.966 50.4738 102.246 51.2447 101.105 51.2447C99.9626 51.2447 99.3008 50.4738 99.3008 49.4919C99.3008 48.51 100.043 47.71 101.134 47.71C102.225 47.71 102.937 48.4809 102.966 49.4919ZM99.4899 66.0383V53.1066H102.785V66.0383H99.4899Z" fill="white"/>
<path d="M114.625 66.0388V55.5509H109.927V66.0388H106.661V55.5509H104.908V53.1071H106.661V52.7871C106.661 51.1143 107.061 49.5724 108.123 48.5105C108.916 47.6886 110.116 47.1795 111.76 47.1795C112.451 47.1795 113.142 47.3686 113.542 47.5504L113.011 49.9651C112.691 49.8342 112.269 49.7251 111.84 49.7251C110.356 49.7251 109.898 50.9761 109.898 52.5907V53.0926H114.625V52.5325C114.625 50.8597 115.076 49.1869 116.218 48.125C117.171 47.2231 118.451 46.874 119.593 46.874C120.473 46.874 121.164 47.0049 121.666 47.194L121.455 49.7178C121.084 49.5869 120.655 49.4778 120.044 49.4778C118.422 49.4778 117.891 50.8306 117.891 52.4235V53.0853H120.706V55.5291H117.92V66.017H114.625V66.0388Z" fill="white"/>
<path d="M134.336 62.1547C134.336 63.6966 134.386 64.9694 134.445 66.0313H131.579L131.419 64.0675H131.368C130.808 64.9985 129.535 66.3222 127.222 66.3222C124.91 66.3222 122.706 64.9112 122.706 60.6928V53.0996H125.971V60.14C125.971 62.2929 126.662 63.6748 128.386 63.6748C129.688 63.6748 130.539 62.7438 130.881 61.922C130.99 61.631 131.07 61.2819 131.07 60.911V53.1069H134.336V62.162V62.1547Z" fill="white"/>
<path d="M137.703 63.0347C138.445 63.4856 139.856 63.9656 141.02 63.9656C142.452 63.9656 143.093 63.3838 143.093 62.5328C143.093 61.6819 142.562 61.2018 140.969 60.6491C138.445 59.7763 137.383 58.3944 137.412 56.8743C137.412 54.5905 139.296 52.8086 142.3 52.8086C143.733 52.8086 144.984 53.1795 145.725 53.5796L145.085 55.8924C144.525 55.5724 143.493 55.1506 142.351 55.1506C141.209 55.1506 140.547 55.7106 140.547 56.5034C140.547 57.2961 141.158 57.7253 142.802 58.3071C145.136 59.1581 146.227 60.3509 146.256 62.2637C146.256 64.5984 144.424 66.3003 140.998 66.3003C139.434 66.3003 138.023 65.9294 137.07 65.3984L137.71 63.0347H137.703Z" fill="white"/>
<path d="M152.417 49.4919C152.417 50.4738 151.697 51.2447 150.555 51.2447C149.413 51.2447 148.751 50.4738 148.751 49.4919C148.751 48.51 149.493 47.71 150.584 47.71C151.675 47.71 152.388 48.4809 152.417 49.4919ZM148.94 66.0383V53.1066H152.235V66.0383H148.94Z" fill="white"/>
<path d="M168.039 59.449C168.039 64.2057 164.694 66.3294 161.399 66.3294C157.733 66.3294 154.919 63.8056 154.919 59.6599C154.919 55.5142 157.704 52.8086 161.61 52.8086C165.516 52.8086 168.039 55.5142 168.039 59.449ZM158.293 59.5799C158.293 62.0746 159.515 63.9584 161.508 63.9584C163.37 63.9584 164.665 62.1255 164.665 59.5217C164.665 57.4998 163.763 55.1942 161.53 55.1942C159.297 55.1942 158.286 57.4271 158.286 59.5799H158.293Z" fill="white"/>
<path d="M170.723 56.9548C170.723 55.4711 170.694 54.2201 170.614 53.1073H173.48L173.64 55.0493H173.72C174.28 54.0383 175.684 52.8164 177.836 52.8164C180.091 52.8164 182.433 54.2783 182.433 58.3658V66.039H179.167V58.7368C179.167 56.8748 178.476 55.4711 176.695 55.4711C175.393 55.4711 174.491 56.4021 174.142 57.384C174.033 57.6749 174.011 58.0749 174.011 58.4458V66.039H170.716V56.9548H170.723Z" fill="white"/>
<path d="M193.903 50.8744H188.804V48.1396H202.325V50.8744H197.176V66.0389H193.91V50.8744H193.903Z" fill="white"/>
<path d="M209.846 66.039L209.635 64.6062H209.555C208.755 65.6172 207.402 66.3299 205.729 66.3299C203.125 66.3299 201.663 64.4462 201.663 62.4824C201.663 59.2168 204.558 57.5731 209.336 57.5949V57.384C209.336 56.533 208.995 55.1293 206.711 55.1293C205.438 55.1293 204.107 55.5293 203.234 56.0821L202.594 53.9583C203.547 53.3764 205.227 52.8164 207.271 52.8164C211.417 52.8164 212.609 55.442 212.609 58.264V62.9406C212.609 64.1116 212.66 65.2535 212.798 66.0463H209.853L209.846 66.039ZM209.424 59.7186C207.111 59.6677 204.907 60.1696 204.907 62.1333C204.907 63.4061 205.729 63.9953 206.769 63.9953C208.071 63.9953 209.024 63.1443 209.322 62.2133C209.402 61.9733 209.431 61.7115 209.431 61.4933V59.7114L209.424 59.7186Z" fill="white"/>
<path d="M216.057 47.1797H219.352V66.039H216.057V47.1797Z" fill="white"/>
<path d="M225.192 60.4818C225.272 62.8165 227.105 63.8274 229.178 63.8274C230.691 63.8274 231.782 63.6165 232.763 63.2456L233.243 65.5003C232.131 65.9512 230.589 66.3003 228.727 66.3003C224.53 66.3003 222.057 63.7256 222.057 59.769C222.057 56.1833 224.232 52.8086 228.378 52.8086C232.523 52.8086 233.956 56.2633 233.956 59.0999C233.956 59.7108 233.905 60.1909 233.847 60.4818H225.192ZM230.872 58.198C230.901 57.0052 230.371 55.0342 228.189 55.0342C226.167 55.0342 225.323 56.867 225.185 58.198H230.865H230.872Z" fill="white"/>
<path d="M236.589 56.9548C236.589 55.4711 236.56 54.2201 236.48 53.1073H239.346L239.506 55.0493H239.586C240.146 54.0383 241.549 52.8164 243.702 52.8164C245.957 52.8164 248.299 54.2783 248.299 58.3658V66.039H245.033V58.7368C245.033 56.8748 244.342 55.4711 242.56 55.4711C241.258 55.4711 240.357 56.4021 240.007 57.384C239.898 57.6749 239.877 58.0749 239.877 58.4458V66.039H236.582V56.9548H236.589Z" fill="white"/>
<path d="M255.39 49.4121V53.1069H258.496V55.5507H255.39V61.2601C255.39 62.8238 255.812 63.653 257.063 63.653C257.623 63.653 258.045 63.573 258.336 63.493L258.387 65.9876C257.907 66.1768 257.056 66.3077 256.023 66.3077C254.83 66.3077 253.819 65.9076 253.208 65.2458C252.518 64.5039 252.197 63.3329 252.197 61.631V55.5507H250.336V53.1069H252.197V50.1831L255.383 49.4121H255.39Z" fill="white"/>
<path d="M84.9871 87.4656L83.4452 92.535H80.0705L85.809 74.6357H89.9765L95.7951 92.535H92.2894L90.6675 87.4656H84.9871ZM90.1147 84.9927L88.7037 80.5852C88.3619 79.4942 88.0637 78.2723 87.8019 77.2395H87.7509C87.4818 78.2723 87.22 79.5233 86.9 80.5852L85.5181 84.9927H90.1147Z" fill="white"/>
<path d="M107.323 92.1424C106.632 92.4624 105.279 92.8042 103.657 92.8042C99.6208 92.8042 96.9879 90.2295 96.9879 86.2147C96.9879 82.1999 99.6426 79.3125 104.188 79.3125C105.381 79.3125 106.603 79.5816 107.345 79.9234L106.763 82.3672C106.232 82.1272 105.461 81.8654 104.29 81.8654C101.795 81.8654 100.304 83.6982 100.334 86.062C100.334 88.7167 102.057 90.2295 104.29 90.2295C105.432 90.2295 106.232 89.9895 106.865 89.7277L107.316 92.1424H107.323Z" fill="white"/>
<path d="M119.011 92.1424C118.32 92.4624 116.967 92.8042 115.345 92.8042C111.309 92.8042 108.676 90.2295 108.676 86.2147C108.676 82.1999 111.331 79.3125 115.876 79.3125C117.069 79.3125 118.291 79.5816 119.033 79.9234L118.451 82.3672C117.92 82.1272 117.149 81.8654 115.978 81.8654C113.483 81.8654 111.992 83.6982 112.022 86.062C112.022 88.7167 113.745 90.2295 115.978 90.2295C117.12 90.2295 117.92 89.9895 118.553 89.7277L119.004 92.1424H119.011Z" fill="white"/>
<path d="M123.499 86.9925C123.579 89.3272 125.411 90.3382 127.484 90.3382C128.997 90.3382 130.088 90.1273 131.07 89.7563L131.55 92.011C130.437 92.4619 128.895 92.8111 127.033 92.8111C122.837 92.8111 120.364 90.2364 120.364 86.2798C120.364 82.6941 122.538 79.3193 126.684 79.3193C130.83 79.3193 132.263 82.7741 132.263 85.6106C132.263 86.2216 132.212 86.7016 132.154 86.9925H123.499ZM129.179 84.7087C129.208 83.5159 128.677 81.5449 126.495 81.5449C124.473 81.5449 123.629 83.3778 123.491 84.7087H129.172H129.179Z" fill="white"/>
<path d="M134.888 73.6826H138.183V92.5347H134.888V73.6826Z" fill="white"/>
<path d="M144.031 86.9925C144.111 89.3272 145.944 90.3382 148.016 90.3382C149.529 90.3382 150.62 90.1273 151.602 89.7563L152.082 92.011C150.969 92.4619 149.427 92.8111 147.565 92.8111C143.369 92.8111 140.896 90.2364 140.896 86.2798C140.896 82.6941 143.071 79.3193 147.216 79.3193C151.362 79.3193 152.795 82.7741 152.795 85.6106C152.795 86.2216 152.744 86.7016 152.686 86.9925H144.031ZM149.711 84.7087C149.74 83.5159 149.209 81.5449 147.027 81.5449C145.005 81.5449 144.162 83.3778 144.023 84.7087H149.704H149.711Z" fill="white"/>
<path d="M155.421 83.7778C155.421 82.025 155.391 80.774 155.311 79.6103H158.155L158.264 82.0831H158.373C159.013 80.2503 160.526 79.3193 161.908 79.3193C162.228 79.3193 162.41 79.3484 162.679 79.3993V82.4832C162.417 82.4322 162.119 82.3741 161.726 82.3741C160.163 82.3741 159.101 83.385 158.803 84.8469C158.752 85.1379 158.693 85.487 158.693 85.8579V92.5492H155.428V83.7851L155.421 83.7778Z" fill="white"/>
<path d="M171.916 92.5425L171.705 91.1097H171.625C170.825 92.1206 169.472 92.8334 167.799 92.8334C165.196 92.8334 163.734 90.9497 163.734 88.9859C163.734 85.7203 166.628 84.0693 171.407 84.0983V83.8874C171.407 83.0365 171.065 81.6327 168.781 81.6327C167.508 81.6327 166.177 82.0328 165.305 82.5928L164.665 80.469C165.617 79.8872 167.298 79.3271 169.341 79.3271C173.487 79.3271 174.68 81.96 174.68 84.7748V89.4514C174.68 90.6224 174.731 91.7643 174.869 92.557H171.923L171.916 92.5425ZM171.494 86.2221C169.181 86.1712 166.978 86.673 166.978 88.6368C166.978 89.9096 167.799 90.4987 168.839 90.4987C170.141 90.4987 171.094 89.6478 171.385 88.7168C171.465 88.4768 171.494 88.215 171.494 87.9968V86.2148V86.2221Z" fill="white"/>
<path d="M181.713 75.916V79.6108H184.819V82.0546H181.713V87.764C181.713 89.3277 182.135 90.1569 183.386 90.1569C183.946 90.1569 184.368 90.0769 184.659 89.9969L184.71 92.4916C184.23 92.6807 183.379 92.8116 182.346 92.8116C181.153 92.8116 180.142 92.4115 179.531 91.7497C178.84 91.0078 178.52 89.8368 178.52 88.1349V82.0546H176.658V79.6108H178.52V76.687L181.706 75.916H181.713Z" fill="white"/>
<path d="M199.43 85.9529C199.43 90.7096 196.085 92.8333 192.79 92.8333C189.124 92.8333 186.31 90.3095 186.31 86.1638C186.31 82.0181 189.095 79.3125 193.001 79.3125C196.907 79.3125 199.43 82.0181 199.43 85.9529ZM189.684 86.0838C189.684 88.5785 190.906 90.4695 192.899 90.4695C194.761 90.4695 196.056 88.6367 196.056 86.0329C196.056 84.0182 195.154 81.7054 192.921 81.7054C190.688 81.7054 189.677 83.9382 189.677 86.0838H189.684Z" fill="white"/>
<path d="M202.114 83.7778C202.114 82.025 202.085 80.774 202.005 79.6103H204.849L204.958 82.0831H205.067C205.707 80.2503 207.22 79.3193 208.602 79.3193C208.922 79.3193 209.104 79.3484 209.373 79.3993V82.4832C209.111 82.4322 208.813 82.3741 208.42 82.3741C206.856 82.3741 205.794 83.385 205.496 84.8469C205.445 85.1379 205.387 85.487 205.387 85.8579V92.5492H202.121V83.7851L202.114 83.7778Z" fill="white"/>
<path d="M257.463 120.5C257.274 120.5 257.085 120.463 256.903 120.383C256.27 120.122 255.914 119.452 256.037 118.776L259.143 101.873H81.4012C80.6012 101.873 79.9466 101.219 79.9466 100.419C79.9466 99.6185 80.6012 98.9639 81.4012 98.9639H260.881C261.31 98.9639 261.725 99.153 262.001 99.4876C262.278 99.8221 262.394 100.259 262.314 100.68L260.096 112.768L273.311 93.9818H262.263C261.776 93.9818 261.318 93.7345 261.049 93.3272C260.78 92.9199 260.729 92.4035 260.925 91.9598L264.045 84.5921H254.663C254.074 84.5921 253.543 84.2357 253.317 83.6902C253.092 83.1447 253.223 82.5192 253.637 82.1047L289.894 46.2043C290.403 45.7025 291.21 45.6443 291.785 46.0734C292.36 46.5025 292.541 47.288 292.2 47.9208L276.7 77.0062H285.996C286.541 77.0062 287.036 77.3117 287.29 77.7917C287.538 78.2717 287.501 78.8536 287.188 79.2972L278.904 91.0725H297.487C298.287 91.0725 298.942 91.7271 298.942 92.5271C298.942 93.3272 298.287 93.9818 297.487 93.9818H276.853L258.641 119.874C258.365 120.274 257.914 120.492 257.448 120.492L257.463 120.5ZM264.46 91.087H275.355L283.203 79.93H274.286C273.777 79.93 273.304 79.6609 273.042 79.2245C272.78 78.7881 272.766 78.2426 273.006 77.7917L285.13 55.0339L258.205 81.6901H266.249C266.736 81.6901 267.194 81.9374 267.464 82.3447C267.733 82.752 267.784 83.2684 267.587 83.712L264.467 91.0798L264.46 91.087Z" fill="white"/>
</g>
<defs>
<clipPath id="clip0_295_1447">
<rect width="298.949" height="120" fill="white" transform="translate(0 0.5)"/>
</clipPath>
</defs>
</svg>
