<svg width="324" height="81" viewBox="0 0 324 81" fill="none" xmlns="http://www.w3.org/2000/svg">
<path d="M76.5355 66.9772C77.7557 67.6744 79.5745 68.2807 81.4919 68.2807C83.8943 68.2807 85.2281 67.1591 85.2281 65.4842C85.2281 63.9306 84.1975 63.0212 81.5828 62.0814C78.2104 60.8688 76.0505 59.0727 76.0505 56.1247C76.0505 52.7825 78.847 50.2285 83.288 50.2285C85.5086 50.2285 87.1531 50.7135 88.2141 51.2592L87.3047 54.2679C86.5771 53.8738 85.1448 53.2978 83.2274 53.2978C80.8553 53.2978 79.8246 54.5786 79.8246 55.7609C79.8246 57.3448 81.0069 58.0724 83.7503 59.1334C87.3047 60.4748 89.0402 62.2633 89.0402 65.2114C89.0402 68.4929 86.5468 71.35 81.257 71.35C79.0971 71.35 76.8462 70.7437 75.7246 70.0692L76.5431 66.9696L76.5355 66.9772Z" fill="white"/>
<path d="M92.1621 49.4639H95.9362V58.2853H95.9969C96.4516 57.5881 97.0579 57.0121 97.8536 56.5802C98.5812 56.1558 99.4679 55.9132 100.408 55.9132C102.931 55.9132 105.576 57.5881 105.576 62.3323V71.0628H101.832V62.7643C101.832 60.6044 101.044 58.9977 98.9752 58.9977C97.5126 58.9977 96.4819 59.9678 96.0878 61.097C95.9666 61.4001 95.9362 61.7942 95.9362 62.2186V71.0704H92.1621V49.479V49.4639Z" fill="white"/>
<path d="M117.885 71.0551L117.642 69.4105H117.551C116.642 70.5625 115.088 71.3885 113.171 71.3885C110.192 71.3885 108.518 69.2286 108.518 66.9778C108.518 63.234 111.829 61.3545 117.309 61.3848V61.1423C117.309 60.1722 116.915 58.558 114.3 58.558C112.837 58.558 111.322 59.0127 110.314 59.6493L109.586 57.2166C110.677 56.5497 112.595 55.9131 114.937 55.9131C119.681 55.9131 121.045 58.9218 121.045 62.1427V67.4931C121.045 68.8346 121.106 70.1381 121.257 71.0475H117.885V71.0551ZM117.4 63.8175C114.755 63.7569 112.231 64.3329 112.231 66.5837C112.231 68.0464 113.171 68.7133 114.361 68.7133C115.854 68.7133 116.945 67.7432 117.278 66.6747C117.369 66.4018 117.4 66.0987 117.4 65.8562V63.8175Z" fill="white"/>
<path d="M125.001 61.021C125.001 59.0127 124.971 57.588 124.88 56.2465H128.131L128.252 59.0734H128.374C129.101 56.9741 130.837 55.9131 132.421 55.9131C132.784 55.9131 132.997 55.9434 133.3 56.004V59.5281C132.997 59.4674 132.663 59.4068 132.208 59.4068C130.412 59.4068 129.2 60.5663 128.866 62.2336C128.806 62.5671 128.745 62.9612 128.745 63.3856V71.0475H125.009V61.0135L125.001 61.021Z" fill="white"/>
<path d="M139.568 62.7489H139.629C139.993 62.1729 140.417 61.5363 140.811 61.0134L144.396 56.2389H148.898L143.426 62.2866L149.693 71.0474H145.101L140.841 64.5071L139.561 66.0001V71.0474H135.817V49.4561H139.561V62.7413L139.568 62.7489Z" fill="white"/>
<path d="M160.454 53.6925H154.619V50.5625H170.094V53.6925H164.198V71.055H160.454V53.6925Z" fill="white"/>
<path d="M178.696 71.0551L178.453 69.4105H178.362C177.453 70.5625 175.899 71.3885 173.982 71.3885C171.003 71.3885 169.329 69.2286 169.329 66.9778C169.329 63.234 172.64 61.3545 178.12 61.3848V61.1423C178.12 60.1722 177.726 58.558 175.111 58.558C173.648 58.558 172.133 59.0127 171.125 59.6493L170.397 57.2166C171.489 56.5497 173.406 55.9131 175.748 55.9131C180.492 55.9131 181.856 58.9218 181.856 62.1427V67.4931C181.856 68.8346 181.917 70.1381 182.068 71.0475H178.696V71.0551ZM178.211 63.8175C175.566 63.7569 173.042 64.3329 173.042 66.5837C173.042 68.0464 173.982 68.7133 175.172 68.7133C176.665 68.7133 177.756 67.7432 178.089 66.6747C178.18 66.4018 178.211 66.0987 178.211 65.8562V63.8175Z" fill="white"/>
<path d="M185.81 60.6573C185.81 58.9521 185.78 57.5273 185.689 56.2465H188.971L189.152 58.4671H189.243C189.88 57.3151 191.494 55.9131 193.957 55.9131C196.541 55.9131 199.217 57.588 199.217 62.2715V71.0627H195.48V62.7035C195.48 60.5739 194.692 58.9673 192.654 58.9673C191.161 58.9673 190.13 60.0283 189.736 61.1575C189.615 61.4909 189.584 61.9456 189.584 62.37V71.0702H185.81V60.6724V60.6573Z" fill="white"/>
<path d="M206.925 62.7489H206.986C207.349 62.1729 207.774 61.5363 208.168 61.0134L211.753 56.2389H216.254L210.782 62.2866L217.05 71.0474H212.457L208.198 64.5071L206.925 66.0001V71.0474H203.181V49.4561H206.925V62.7413V62.7489Z" fill="white"/>
<path d="M77.302 42.6074L74.6191 34.3164H76.2637L77.3929 38.083C77.7112 39.1288 77.984 40.0989 78.2038 41.1068H78.2265C78.4463 40.1216 78.7419 39.1137 79.0753 38.1057L80.2803 34.3164H81.8946L79.0299 42.6074H77.2944H77.302Z" fill="white"/>
<path d="M85.2345 34.3164V37.6358H88.7358V34.3164H90.2515V42.6074H88.7358V38.9545H85.2345V42.6074H83.7188V34.3164H85.2345Z" fill="white"/>
<path d="M94.5665 40.258L93.8542 42.6074H92.293L94.953 34.3164H96.8856L99.576 42.6074H97.9542L97.2039 40.258H94.5741H94.5665ZM96.9386 39.1137L96.2869 37.075C96.1277 36.5672 95.9913 36.0064 95.8701 35.529H95.8473C95.726 36.0064 95.6048 36.59 95.4532 37.075L94.8166 39.1137H96.9462H96.9386Z" fill="white"/>
<path d="M105.115 34.4302C105.782 34.3165 106.631 34.2559 107.525 34.2559C109.071 34.2559 110.147 34.5742 110.905 35.2183C111.701 35.8701 112.194 36.8553 112.194 38.2649C112.194 39.6745 111.686 40.8492 110.905 41.5616C110.079 42.3119 108.768 42.6908 107.154 42.6908C106.267 42.6908 105.608 42.6378 105.115 42.5771V34.4226V34.4302ZM106.631 41.4555C106.843 41.4934 107.161 41.4934 107.465 41.4934C109.435 41.5086 110.602 40.4248 110.602 38.318C110.617 36.484 109.556 35.4381 107.662 35.4381C107.184 35.4381 106.836 35.476 106.631 35.5215V41.4479V41.4555Z" fill="white"/>
<path d="M115.942 34.3164V42.6074H114.427V34.3164H115.942Z" fill="white"/>
<path d="M118.598 34.3164H123.38V35.5593H120.106V37.848H123.153V39.0909H120.106V42.6074H118.59V34.3164H118.598Z" fill="white"/>
<path d="M125.782 34.3164H130.564V35.5593H127.29V37.848H130.336V39.0909H127.29V42.6074H125.774V34.3164H125.782Z" fill="white"/>
<path d="M134.457 34.3164V39.1515C134.457 40.7733 135.131 41.5236 136.154 41.5236C137.246 41.5236 137.898 40.7733 137.898 39.1515V34.3164H139.413V39.053C139.413 41.6146 138.095 42.7438 136.109 42.7438C134.123 42.7438 132.949 41.6752 132.949 39.0682V34.324H134.464L134.457 34.3164Z" fill="white"/>
<path d="M142.029 40.9627C142.522 41.2431 143.257 41.4932 144.038 41.4932C145.008 41.4932 145.554 41.0385 145.554 40.364C145.554 39.735 145.137 39.3712 144.076 38.9847C142.712 38.4921 141.84 37.7646 141.84 36.5747C141.84 35.2258 142.969 34.1875 144.765 34.1875C145.66 34.1875 146.327 34.3845 146.759 34.6043L146.387 35.8245C146.092 35.6653 145.516 35.4304 144.743 35.4304C143.78 35.4304 143.363 35.9457 143.363 36.4232C143.363 37.0598 143.841 37.3553 144.947 37.7873C146.387 38.3254 147.084 39.0529 147.084 40.2504C147.084 41.5766 146.076 42.7361 143.939 42.7361C143.068 42.7361 142.158 42.4936 141.704 42.2208L142.037 40.9627H142.029Z" fill="white"/>
<path d="M150.89 34.3164V42.6074H149.375V34.3164H150.89Z" fill="white"/>
<path d="M160.892 38.3782C160.892 41.1596 159.21 42.7435 156.921 42.7435C154.632 42.7435 153.109 40.9625 153.109 38.5222C153.109 36.0819 154.708 34.1797 157.042 34.1797C159.376 34.1797 160.892 36.0137 160.892 38.3706V38.3782ZM154.708 38.4995C154.708 40.1819 155.557 41.5233 157.004 41.5233C158.452 41.5233 159.293 40.1668 159.293 38.4388C159.293 36.8777 158.52 35.3998 157.004 35.3998C155.489 35.3998 154.708 36.7867 154.708 38.4995Z" fill="white"/>
<path d="M163.121 42.6074V34.3164H164.841L166.978 37.8708C167.531 38.7953 168.009 39.7502 168.395 40.6521H168.418C168.32 39.5456 168.282 38.477 168.282 37.2114V34.324H169.684V42.6149H168.122L165.955 38.9772C165.424 38.0678 164.871 37.0447 164.47 36.1125L164.432 36.1277C164.492 37.1963 164.507 38.2952 164.507 39.6593V42.6225H163.121V42.6074Z" fill="white"/>
<path d="M183.171 38.3782C183.171 41.1596 181.489 42.7435 179.2 42.7435C176.911 42.7435 175.388 40.9625 175.388 38.5222C175.388 36.0819 176.987 34.1797 179.321 34.1797C181.656 34.1797 183.171 36.0137 183.171 38.3706V38.3782ZM176.987 38.4995C176.987 40.1819 177.836 41.5233 179.284 41.5233C180.731 41.5233 181.572 40.1668 181.572 38.4388C181.572 36.8777 180.799 35.3998 179.284 35.3998C177.768 35.3998 176.987 36.7867 176.987 38.4995Z" fill="white"/>
<path d="M185.393 34.3164H190.175V35.5593H186.901V37.848H189.948V39.0909H186.901V42.6074H185.385V34.3164H185.393Z" fill="white"/>
<path d="M200.664 38.9318H197.542V41.3645H201.036V42.6074H196.034V34.3164H200.854V35.5593H197.542V37.6965H200.664V38.9242V38.9318Z" fill="white"/>
<path d="M207.725 42.6076L206.831 40.9631C206.474 40.3265 206.239 39.8793 206.005 39.4019H205.967C205.77 39.8793 205.55 40.3265 205.216 40.9631L204.39 42.6076H202.655L205.118 38.4167L202.753 34.3242H204.489L205.383 36.037C205.656 36.5523 205.853 36.9616 206.073 37.4239H206.095C206.315 36.9085 206.49 36.5372 206.747 36.037L207.634 34.3242H209.369L206.944 38.3712L209.468 42.6152H207.725V42.6076Z" fill="white"/>
<path d="M216.997 42.3648C216.641 42.5467 215.853 42.7361 214.86 42.7361C212.23 42.7361 210.631 41.0916 210.631 38.5679C210.631 35.8396 212.526 34.1875 215.057 34.1875C216.05 34.1875 216.77 34.3997 217.073 34.5588L216.74 35.7638C216.346 35.5895 215.808 35.4455 215.118 35.4455C213.435 35.4455 212.215 36.5065 212.215 38.4921C212.215 40.311 213.284 41.4781 215.103 41.4781C215.717 41.4781 216.353 41.3568 216.747 41.1674L216.99 42.3572L216.997 42.3648Z" fill="white"/>
<path d="M223.86 38.9318H220.738V41.3645H224.232V42.6074H219.23V34.3164H224.05V35.5593H220.738V37.6965H223.86V38.9242V38.9318Z" fill="white"/>
<path d="M226.475 34.3164H227.991V41.3418H231.394V42.6074H226.475V34.3164Z" fill="white"/>
<path d="M233.461 34.3164H234.977V41.3418H238.38V42.6074H233.461V34.3164Z" fill="white"/>
<path d="M245.08 38.9318H241.958V41.3645H245.452V42.6074H240.45V34.3164H245.27V35.5593H241.958V37.6965H245.08V38.9242V38.9318Z" fill="white"/>
<path d="M247.694 42.6074V34.3164H249.414L251.551 37.8708C252.105 38.7953 252.582 39.7502 252.969 40.6521H252.991C252.893 39.5456 252.855 38.477 252.855 37.2114V34.324H254.257V42.6149H252.696L250.528 38.9772C249.998 38.0678 249.444 37.0447 249.043 36.1125L249.005 36.1277C249.066 37.1963 249.081 38.2952 249.081 39.6593V42.6225H247.694V42.6074Z" fill="white"/>
<path d="M262.872 42.3648C262.516 42.5467 261.728 42.7361 260.735 42.7361C258.105 42.7361 256.506 41.0916 256.506 38.5679C256.506 35.8396 258.401 34.1875 260.932 34.1875C261.925 34.1875 262.645 34.3997 262.948 34.5588L262.615 35.7638C262.221 35.5895 261.683 35.4455 260.993 35.4455C259.31 35.4455 258.09 36.5065 258.09 38.4921C258.09 40.311 259.159 41.4781 260.978 41.4781C261.592 41.4781 262.228 41.3568 262.622 41.1674L262.865 42.3572L262.872 42.3648Z" fill="white"/>
<path d="M269.717 38.9318H266.595V41.3645H270.088V42.6074H265.086V34.3164H269.906V35.5593H266.595V37.6965H269.717V38.9242V38.9318Z" fill="white"/>
<path d="M45.5957 25.1758C44.2695 25.676 42.3976 27.601 40.6015 30.3141C38.7978 33.0196 37.2442 36.2405 36.1528 39.4842C43.1251 34.6945 47.2176 29.1167 47.1721 26.4111C47.1645 25.82 46.9599 25.4108 46.5506 25.1531C46.4749 25.1076 46.3915 25.0773 46.3006 25.0621C46.2551 25.0621 46.2172 25.0546 46.1717 25.0546C46.005 25.0546 45.8079 25.0925 45.5957 25.1758ZM68.5285 19.0448L73.5076 19.1963L83.284 7.31313L78.4261 20.3104L85.3605 24.1224L85.0726 3.46322L68.5285 19.0448ZM24.9896 17.0819C24.2469 16.9682 23.5876 16.6575 23.0874 16.1725C22.3523 15.4677 21.9961 14.4749 22.0643 13.3684C22.1401 12.2923 22.6175 11.2388 23.4133 10.4052C25.1109 8.62422 27.9907 8.2074 29.4534 9.54123C30.2416 10.2536 30.6508 11.0873 30.6811 12.0194C30.719 13.2017 30.1355 14.4976 29.0214 15.6647C28.2257 16.4984 27.1571 17.0137 26.0127 17.1198C25.8839 17.1274 25.755 17.135 25.6338 17.135C25.414 17.135 25.1942 17.1198 24.9896 17.0895M25.3155 0.5C21.5944 0.5 18.0325 1.23512 14.8191 2.86452C-5.33986 13.0956 -3.37701 57.7485 11.3785 67.4945C26.134 77.233 69.0666 58.5897 69.0893 38.1655C69.0893 36.9226 68.9605 35.657 68.718 34.3838C68.1572 35.3614 67.5357 36.3769 66.8688 37.4076C63.6328 42.4019 58.3126 49.215 51.3555 53.3378C45.9141 56.5662 40.5257 57.2862 36.3878 56.6496C33.2881 56.1722 30.8857 54.9369 29.6807 53.4136C28.8244 52.3374 28.1878 51.049 27.7709 49.5636C22.4659 52.0418 17.7293 53.1407 14.0613 52.7466C11.8483 52.5117 9.94613 51.0112 8.85481 48.6391C6.17957 42.8566 8.44557 33.6335 14.9253 23.9632C17.0169 20.8485 19.7528 20.7424 20.829 20.8485C22.3219 20.9924 23.6482 21.7351 24.0499 22.6673C24.5349 23.7965 23.3678 25.6684 21.602 28.5028C19.7452 31.4736 17.4489 35.172 16.062 39.4917C14.8949 43.1522 14.7737 45.9714 15.721 47.2295C16.153 47.8054 16.8199 48.0707 17.7521 48.0328C20.0711 47.9418 23.2617 46.8657 27.2253 44.8422C27.4602 34.3686 35.8876 20.9621 45.5654 20.0375C47.4222 19.8557 49.2865 20.5605 50.5521 21.9246C51.7799 23.2433 52.2876 25.0091 51.9845 26.9037C51.1584 31.9738 44.0876 39.6812 34.7584 45.6834C34.5841 48.3056 35.2813 50.2988 36.7819 51.4431C38.4567 52.7315 41.0334 52.8376 44.0194 51.7463C55.1978 47.6539 63.0644 36.9226 67.5964 30.3823C62.0488 15.3692 42.0793 0.5 25.3382 0.5" fill="white"/>
<mask id="mask0_295_999" style="mask-type:luminance" maskUnits="userSpaceOnUse" x="0" y="0" width="86" height="71">
<path d="M45.5957 25.1758C44.2695 25.676 42.3976 27.601 40.6015 30.3141C38.7978 33.0196 37.2442 36.2405 36.1528 39.4842C43.1251 34.6945 47.2176 29.1167 47.1721 26.4111C47.1645 25.82 46.9599 25.4108 46.5506 25.1531C46.4749 25.1076 46.3915 25.0773 46.3006 25.0621C46.2551 25.0621 46.2172 25.0546 46.1717 25.0546C46.005 25.0546 45.8079 25.0925 45.5957 25.1758ZM68.5285 19.0448L73.5076 19.1963L83.284 7.31313L78.4261 20.3104L85.3605 24.1224L85.0726 3.46322L68.5285 19.0448ZM24.9896 17.0819C24.2469 16.9682 23.5876 16.6575 23.0874 16.1725C22.3523 15.4677 21.9961 14.4749 22.0643 13.3684C22.1401 12.2923 22.6175 11.2388 23.4133 10.4052C25.1109 8.62422 27.9907 8.2074 29.4534 9.54123C30.2416 10.2536 30.6508 11.0873 30.6811 12.0194C30.719 13.2017 30.1355 14.4976 29.0214 15.6647C28.2257 16.4984 27.1571 17.0137 26.0127 17.1198C25.8839 17.1274 25.755 17.135 25.6338 17.135C25.414 17.135 25.1942 17.1198 24.9896 17.0895M25.3155 0.5C21.5944 0.5 18.0325 1.23512 14.8191 2.86452C-5.33986 13.0956 -3.37701 57.7485 11.3785 67.4945C26.134 77.233 69.0666 58.5897 69.0893 38.1655C69.0893 36.9226 68.9605 35.657 68.718 34.3838C68.1572 35.3614 67.5357 36.3769 66.8688 37.4076C63.6328 42.4019 58.3126 49.215 51.3555 53.3378C45.9141 56.5662 40.5257 57.2862 36.3878 56.6496C33.2881 56.1722 30.8857 54.9369 29.6807 53.4136C28.8244 52.3374 28.1878 51.049 27.7709 49.5636C22.4659 52.0418 17.7293 53.1407 14.0613 52.7466C11.8483 52.5117 9.94613 51.0112 8.85481 48.6391C6.17957 42.8566 8.44557 33.6335 14.9253 23.9632C17.0169 20.8485 19.7528 20.7424 20.829 20.8485C22.3219 20.9924 23.6482 21.7351 24.0499 22.6673C24.5349 23.7965 23.3678 25.6684 21.602 28.5028C19.7452 31.4736 17.4489 35.172 16.062 39.4917C14.8949 43.1522 14.7737 45.9714 15.721 47.2295C16.153 47.8054 16.8199 48.0707 17.7521 48.0328C20.0711 47.9418 23.2617 46.8657 27.2253 44.8422C27.4602 34.3686 35.8876 20.9621 45.5654 20.0375C47.4222 19.8557 49.2865 20.5605 50.5521 21.9246C51.7799 23.2433 52.2876 25.0091 51.9845 26.9037C51.1584 31.9738 44.0876 39.6812 34.7584 45.6834C34.5841 48.3056 35.2813 50.2988 36.7819 51.4431C38.4567 52.7315 41.0334 52.8376 44.0194 51.7463C55.1978 47.6539 63.0644 36.9226 67.5964 30.3823C62.0488 15.3692 42.0793 0.5 25.3382 0.5" fill="white"/>
</mask>
<g mask="url(#mask0_295_999)">
<path d="M60.7946 -39.818L-39.4482 21.2744L19.2226 117.544L119.465 56.4512L60.7946 -39.818Z" fill="white"/>
</g>
<path d="M321.691 75.9001C318.311 75.9305 314.954 75.5212 311.778 74.2859C310.24 73.6872 308.792 72.8611 307.466 71.8759C308.095 70.148 308.361 68.2988 308.542 66.4724C308.914 62.7134 308.618 58.9014 307.246 55.3547C305.754 51.4896 303.344 48.0944 300.486 45.1236C296.682 41.1676 292.249 37.8027 288.035 34.2938C287.573 33.9073 287.118 33.5132 286.648 33.1419C285.147 31.9369 283.139 31.9142 281.964 33.5663C281.525 34.1877 281.282 34.9304 281.04 35.6504C280.684 36.7114 280.32 37.78 279.956 38.841C279.342 40.5992 278.713 42.3574 278.039 44.0929C276.834 47.185 275.462 50.2012 273.825 53.0887C272.969 54.5968 272.052 56.067 271.082 57.507C270.581 58.2421 270.074 58.9696 269.551 59.682C269.369 59.9245 269.195 60.1746 269.013 60.4171C268.922 60.5384 268.823 60.6672 268.732 60.7885C268.679 60.8567 268.626 60.9249 268.573 60.9931L268.55 61.0234C267.338 62.5846 266.254 64.2367 265.292 65.9646C264.39 67.5865 263.495 69.1401 264.208 71.0347C264.905 72.8839 266.951 73.5811 268.747 72.9976C270.4 72.4595 271.908 71.4061 273.022 70.0874C274.083 68.8293 274.931 67.4122 275.962 66.139C277.887 63.7517 280.115 61.0765 282.927 59.7048C284.321 59.0227 285.913 58.6286 287.436 59.0682C289.073 59.538 290.551 60.6218 291.923 61.5994C294.954 63.7744 297.69 66.3815 300.327 69.0037C301.563 70.239 302.752 71.4894 304.026 72.6414C302.654 74.8998 300.229 76.7414 297.758 77.378C296.273 77.7569 294.605 77.6432 293.075 77.6508C291.688 77.6508 290.301 77.6281 288.914 77.5447C287.429 77.4537 286.049 76.946 284.973 75.8926C284.041 74.9756 283.313 73.8691 282.396 72.9293C281.828 72.3458 281.199 71.8229 280.532 71.353C279.774 70.8149 278.797 70.1253 277.819 70.4208C277.016 70.6634 276.5 71.5879 276.023 72.217C275.53 72.8687 275.06 73.5356 274.568 74.1874C273.757 75.256 272.847 76.3473 271.65 76.999C270.422 77.6735 268.853 77.575 267.497 77.5371C265.981 77.4992 264.359 77.3249 263.041 76.5216C261.548 75.6122 260.358 74.2404 258.926 73.2401C257.531 72.27 255.599 71.0423 254.083 72.4216C253.583 72.8763 253.272 73.5281 252.795 74.0207C252.294 74.5436 251.734 74.9831 251.112 75.3621C248.414 77.0142 245.261 77.431 242.154 77.4538C239.881 77.4765 237.615 77.4765 235.341 77.4765C227.308 77.4841 219.275 77.4765 211.241 77.4689C202.094 77.4613 192.947 77.4386 183.792 77.4234C177.661 77.4083 83.785 77.4007 77.6615 77.3855C77.0931 77.3855 76.5323 77.3855 75.9639 77.3855C74.1526 77.3855 74.1526 80.1972 75.9639 80.1972C80.7536 80.1972 173.288 80.2123 178.077 80.2199C186.906 80.2351 195.736 80.2502 204.572 80.2654C213.25 80.2806 221.935 80.2881 230.612 80.2881C233.598 80.2881 236.592 80.2881 239.577 80.273C241.033 80.273 242.495 80.3033 243.943 80.2199C246.868 80.0532 249.899 79.356 252.431 77.8327C253.098 77.431 253.742 76.9611 254.318 76.4382C254.575 76.2033 254.826 75.9532 255.053 75.6955C255.159 75.5667 255.364 75.3318 255.546 75.112C255.727 74.8922 256.061 74.8088 256.326 74.9452C256.508 75.0438 256.69 75.1423 256.864 75.2484C257.607 75.6955 258.274 76.2412 258.933 76.802C260.29 77.9615 261.57 79.1135 263.291 79.697C264.882 80.2427 266.625 80.3563 268.3 80.3412C269.899 80.326 271.438 80.2351 272.893 79.5075C274.227 78.8331 275.31 77.719 276.235 76.5671C276.728 75.9608 277.19 75.3317 277.652 74.7027C277.978 74.2632 278.243 73.7403 278.66 73.7024C279.115 73.6038 279.562 74.051 279.88 74.3996C280.434 74.9983 280.79 75.3924 281.313 75.9759C282.449 77.2491 283.518 78.5981 285.072 79.3787C287.868 80.7807 291.438 80.4928 294.477 80.4397C296.303 80.4094 298.069 80.3488 299.782 79.6515C301.532 78.9391 303.109 77.8554 304.442 76.5292C305.102 75.8774 305.685 75.1726 306.178 74.4147C306.473 74.6269 306.777 74.8391 307.087 75.0362C309.725 76.7186 312.741 77.7872 315.818 78.2874C317.758 78.5981 319.706 78.7345 321.668 78.7118C323.472 78.6966 323.48 75.885 321.668 75.9001H321.691ZM298.137 63.0393C295.56 60.7354 292.726 58.2497 289.535 56.8476C282.874 53.9147 277.129 60.114 273.416 64.8582C272.514 66.0101 271.771 67.3136 270.778 68.3974C270.316 68.9051 269.831 69.5796 269.248 69.951C268.626 70.3451 267.906 70.7088 267.383 70.4057C266.125 69.6857 267.338 68.0715 267.611 67.594C268.187 66.5634 268.755 65.5175 269.414 64.5399C269.604 64.2519 269.808 63.9791 270.013 63.7062C270.013 63.7062 270.028 63.6911 270.036 63.6835C270.074 63.6304 270.112 63.585 270.149 63.5319C270.271 63.3728 270.399 63.2136 270.521 63.0621C271.362 61.9783 272.18 60.8718 272.961 59.7426C274.825 57.0523 276.508 54.2406 277.955 51.3077C279.426 48.3066 280.668 45.1994 281.805 42.0619C282.449 40.2733 283.063 38.4772 283.67 36.6735C283.806 36.2567 283.942 35.4306 284.299 35.135C284.367 35.0744 284.397 35.0441 284.412 35.0289C284.412 35.0365 284.427 35.0517 284.473 35.0593C284.534 35.0593 284.7 35.1654 284.753 35.1957C286.125 36.2339 287.406 37.4086 288.732 38.5075C290.414 39.9095 292.105 41.2964 293.764 42.7136C299.38 47.5108 305.003 53.3691 305.791 61.0916C306.079 63.9184 305.981 67.0939 305.178 69.9131C302.821 67.6395 300.6 65.2371 298.152 63.0545L298.137 63.0393Z" fill="white"/>
</svg>
