<svg width="360" height="169" viewBox="0 0 360 169" fill="none" xmlns="http://www.w3.org/2000/svg">
<path d="M-54 108.631C102.058 170.132 287.287 153.809 296.628 112.845C298.263 101.609 287.754 98.0974 275.844 98.0974C272.419 98.3315 266.97 97.1611 268.838 95.5225C270.706 93.8839 273.042 99.2678 261.832 99.2678C250.623 99.2678 249.689 96.6929 245.018 100.438C240.348 104.184 242.45 111.674 237.078 111.674C236.066 111.908 233.529 110.691 231.474 103.949C228.905 95.5225 227.737 93.8839 223.3 94.3521C218.863 94.8202 222.6 101.14 224.935 96.6929C227.27 92.2453 220.498 89.9045 217.229 87.3295C213.959 84.7546 209.756 85.925 206.486 85.925C203.217 85.925 202.049 86.8614 199.247 84.5205C196.445 82.1797 195.043 81.2434 188.038 80.0729C181.032 78.9025 176.828 68.1347 175.194 65.3256C173.559 62.5166 172.391 57.3668 174.727 40.9809C177.062 24.5951 180.565 26.9359 181.966 21.552C183.367 16.168 187.103 5.86834 187.804 3.99567C188.505 2.123 189.672 2.123 190.373 3.52751C191.073 4.93201 192.942 7.03876 195.277 3.99567C197.612 0.952583 197.612 0.718499 201.582 1.18667C205.552 1.65483 272.575 9.84777 282.383 12.6568C292.191 15.4658 281.215 17.1044 281.215 19.4452C281.215 21.786 287.754 23.8928 290.556 19.4452C293.359 14.9976 278.88 20.6156 285.185 25.7655C286.905 27.17 287.287 26.4677 292.191 25.7655C297.095 25.0632 301.299 29.2407 298.73 34.1925C292.658 45.8967 287.287 52.6851 287.287 44.2581C287.443 42.0733 290.089 37.5165 299.43 36.7674C306.436 36.2056 295.46 53.2313 303.634 53.6215C311.807 54.0116 313.909 44.2581 330.723 40.7468C337.962 39.5764 344.548 41.9173 347.537 36.2992C349.016 33.7243 352.301 29.464 353.609 33.0221C354.297 34.8947 353.842 43.5558 353.142 44.2581C353.064 44.8823 351.741 46.1308 347.07 46.1308C341.232 46.1308 340.765 50.1102 340.998 51.9829C341.232 53.8555 342.399 55.7282 339.831 56.1964C337.262 56.6646 332.591 57.3668 330.023 57.6009C327.454 57.835 325.586 60.644 324.184 64.1552C322.783 67.6665 321.616 73.2845 319.747 71.6459C317.879 70.0073 315.777 66.0279 317.412 65.5597C319.047 65.0916 318.346 69.5392 318.113 72.8163C317.879 76.0935 316.945 79.1366 316.478 79.8389C316.011 80.5411 314.843 83.116 307.37 86.6273C303.712 88.1878 296.145 93.0952 292.425 98.5656C288.922 103.715 289.622 105.822 289.622 108.631C289.622 111.44 289.155 119.399 296.628 120.335C304.101 121.272 312.697 112.657 333.525 123.847C362.719 139.53 373.839 147.869 368 168" stroke="url(#paint0_linear_268_890)" stroke-width="2" stroke-linejoin="round"/>
<defs>
<linearGradient id="paint0_linear_268_890" x1="-56.5272" y1="-552.889" x2="-56.5272" y2="1106.76" gradientUnits="userSpaceOnUse">
<stop stop-color="#4E5A9A"/>
<stop offset="1" stop-color="#23A9E0"/>
</linearGradient>
</defs>
</svg>
