<svg width="360" height="144" viewBox="0 0 360 144" fill="none" xmlns="http://www.w3.org/2000/svg">
<path d="M-16 1C14.1359 101.615 247.431 87.0375 253.323 75.3042C256.27 73.2508 260.394 84.1042 271.59 84.1042C274.537 84.4954 281.608 82.9895 286.322 73.8375C290.741 71.7842 293.393 84.1042 306.652 84.1042C314.214 84.6909 329.338 81.6989 329.338 65.0375C329.338 56.9667 329.241 51.1544 324.919 44.5042C314.789 28.9181 294.866 16.6376 294.866 16.6376C292.804 19.8642 287.795 41.2775 277.483 54.1841C273.162 59.7575 265.521 71.1975 269.528 72.3708C274.537 73.8375 276.894 71.4908 285.438 59.7575C293.982 48.0242 303.705 52.1308 309.892 57.7042C322.856 68.2642 329.044 81.4642 353.498 82.0509C363.015 82.6934 393.071 80.7301 381.651 101.012C367.376 126.363 443.906 143.001 380.462 143.001" stroke="url(#paint0_linear_268_888)" stroke-width="2" stroke-linejoin="round"/>
<defs>
<linearGradient id="paint0_linear_268_888" x1="-47.5725" y1="-207.47" x2="-47.5725" y2="1872.26" gradientUnits="userSpaceOnUse">
<stop stop-color="#4E5A9A"/>
<stop offset="1" stop-color="#23A9E0"/>
</linearGradient>
</defs>
</svg>
