<svg width="360" height="96" viewBox="0 0 360 96" fill="none" xmlns="http://www.w3.org/2000/svg">
<path d="M422 75.1609C304.065 75.1609 347.145 75.1609 332.48 69.3728C321.786 66.0217 327.897 66.3264 332.48 64.8032C335.535 63.8892 338.468 63.5846 334.313 61.1475C332.48 60.0304 328.141 56.7606 325.452 52.6175C322.092 47.4386 328.508 52.9221 331.869 53.8361C335.229 54.75 342.868 56.5778 336.451 52.6175C330.035 48.6572 326.063 42.5644 323.314 41.0411C321.48 40.1272 316.898 42.869 311.398 45.6108C307.121 48.1494 297.894 53.2268 295.205 53.2268C293.066 52.6175 289.4 48.0479 286.956 48.9618C285.733 50.8912 283.411 54.9328 283.9 55.6639C284.511 56.5778 288.178 57.1871 288.178 58.7103C288.178 60.2335 281.762 62.366 281.762 64.1939C281.762 66.0217 286.65 72.4192 284.511 71.8099C282.373 71.2006 261.291 55.6639 251.82 55.6639C242.348 55.6639 234.404 61.7567 232.571 60.2335C230.738 58.7103 242.654 47.4386 243.57 46.5247C244.487 45.6108 248.153 42.5644 248.459 41.0411C248.459 38.9087 247.542 36.8371 247.542 35.8622C247.542 34.6437 248.825 33.486 252.736 31.2926C255.69 29.6679 261.597 25.9309 261.597 23.9812C261.597 21.5441 259.763 18.1931 259.763 17.2791C259.763 16.3652 263.124 11.7956 264.957 11.1863C265.874 10.8817 275.345 20.3255 276.873 21.8488C278.503 23.5751 281.028 26.6621 278.095 25.1998C274.429 23.372 271.985 22.1534 272.596 23.6766C273.207 25.1998 278.095 31.2926 280.234 33.4251C282.373 35.5576 286.956 40.1272 284.206 38.9087C281.456 37.6901 271.374 29.7694 265.568 22.7627C261.291 17.2791 261.79 17.8884 262.208 15.4513C263.022 12.608 265.019 6.1902 266.485 3.26565C267.096 2.65637 268.929 4.17957 272.901 7.83527C283.187 17.7869 305.935 36.7018 314.148 37.9947C319.953 38.9087 321.786 33.4251 327.286 37.3854C332.276 41.2442 343.112 49.8148 346.534 53.2268C350.811 57.4918 354.783 59.6242 357.839 59.9289C360.894 60.2335 366.699 61.4521 374.643 67.8496C385.031 76.2155 394.197 74.247 392.364 76.0749C390.327 77.5981 382.892 80.6445 369.449 80.6445C352.645 80.6445 340.423 75.1609 319.036 78.8166C300.704 81.9501 295.205 87.6512 290.622 85.2141C288.178 83.9143 304.982 76.0749 309.565 73.9424C310.685 73.5362 312.926 72.4801 312.926 71.5052C312.926 70.2867 312.315 68.4588 313.842 67.2403C315.37 66.0217 320.564 61.7567 320.564 58.4057C320.564 55.0546 318.425 53.2268 318.425 50.485C318.425 48.3525 320.564 43.7829 321.48 41.9551C322.499 40.2288 323.864 37.2636 321.175 39.2133C317.814 41.6504 312.926 38.9087 308.648 35.253C305.226 32.3284 282.169 13.3188 271.068 4.17957C269.744 2.85946 266.791 0.402024 265.568 1.13316C264.041 2.04709 254.334 9.93186 237.46 29.1601C234.303 32.7143 227.744 39.6398 226.766 38.9087C225.544 37.9947 219.128 32.5112 216.989 32.2066C214.85 31.9019 209.962 39.8226 209.351 40.4319C208.74 41.0411 197.435 52.9221 180.02 63.2799C169.263 69.6774 164.438 80.6445 172.076 72.4192C173.604 70.6929 177.087 67.6058 178.798 69.0681C180.937 70.896 179.409 72.4192 184.297 68.1542C189.186 63.8892 209.045 44.3922 212.101 41.9551C215.156 39.5179 215.462 38.9087 217.6 40.4319C219.739 41.9551 224.016 47.7432 223.405 48.3525C222.794 48.9618 218.517 43.4783 215.767 45.3061C213.017 47.134 213.934 54.75 214.85 56.8825C215.767 59.015 215.767 60.2335 214.85 60.2335C213.934 60.2335 213.323 56.2732 210.267 57.4918C208.129 58.3448 208.74 64.4985 205.685 65.1078C203.546 65.5343 207.823 59.6242 202.935 60.2335C200.592 60.6397 193.586 63.4627 184.297 71.5052C168.41 85.2622 135.181 94 101.952 94C80.9936 94 -3.25991 96.1325 -19 69.3728" stroke="url(#paint0_linear_268_889)" stroke-width="2" stroke-linejoin="round"/>
<defs>
<linearGradient id="paint0_linear_268_889" x1="651.98" y1="-635.871" x2="651.98" y2="1524.03" gradientUnits="userSpaceOnUse">
<stop stop-color="#4E5A9A"/>
<stop offset="1" stop-color="#23A9E0"/>
</linearGradient>
</defs>
</svg>
