<svg width="96" height="96" viewBox="0 0 96 96" fill="none" xmlns="http://www.w3.org/2000/svg">
<g id="Group 1">
<path id="Vector" d="M48 25C35.2975 25 25 35.2971 25 48C25 60.7029 35.2975 71 48 71C60.7025 71 71 60.7029 71 48C71 35.2971 60.7025 25 48 25ZM44.534 39.0944C45.2076 38.7011 46.1 38.6666 46.9096 39.2094L55.3324 44.8927C57.7858 46.6913 57.859 49.242 55.3324 51.0935L46.9096 56.7768C45.2904 57.8624 43.4001 56.7515 43.4001 54.7091V41.2748C43.4001 40.2559 43.8601 39.4877 44.534 39.0944Z" fill="white"/>
<circle id="Ellipse 1" cx="48" cy="48" r="33.5" stroke="white" stroke-opacity="0.5"/>
<circle id="Ellipse 2" cx="48" cy="48" r="47.5" stroke="white" stroke-opacity="0.2"/>
</g>
</svg>
