<svg width="360" height="120" viewBox="0 0 360 120" fill="none" xmlns="http://www.w3.org/2000/svg">
<path d="M408 119C339.649 90.166 372.442 68.8502 389.33 64.4252C406.218 60.0003 409.056 46.5139 396.601 35.3461C393.223 32.1151 382.457 26.454 366.414 29.6568C346.359 33.6604 335.593 32.3961 329.049 34.5032C322.505 36.6104 325.461 43.7746 331.16 43.7746C336.86 43.7746 332.849 34.5032 332.005 31.1318C331.329 28.4347 330.597 27.339 330.316 27.1283L356.492 11.3247C354.17 10.9736 349.146 10.1026 347.626 9.42833C345.726 8.58548 344.037 7.53191 344.248 8.79619C344.459 10.0605 345.515 11.5355 346.57 11.9569C347.626 12.3783 349.737 16.3819 350.37 19.3319C350.877 21.6918 350.722 22.0009 350.581 21.8604C351.003 20.5259 352.355 18.3626 354.381 20.3854C356.914 22.914 352.27 24.389 351.004 23.1247C349.737 21.8604 353.114 37.4532 355.014 40.4032C356.914 43.3532 357.125 43.3532 357.336 40.6139C357.548 37.8746 357.97 44.6175 359.87 43.7746C361.39 43.1003 360.503 41.3865 359.87 40.6139C360.362 41.6675 361.516 43.606 362.192 42.9318C362.867 42.2575 362.051 40.2627 361.558 39.3496C362.403 40.4734 364.092 42.1732 364.092 39.9818C364.092 37.2425 362.403 33.6604 359.025 28.1818C355.648 22.7033 352.481 18.489 350.581 13.6426C349.061 9.76547 344.882 8.37476 342.982 8.16405L292.318 1L235.322 41.4568L276.275 47.1462C277.964 47.2867 281.341 48.0735 281.341 50.0963C281.341 52.6249 269.097 56.8396 271.842 60.0003C274.586 63.161 304.351 56.6289 313.639 54.3111C322.927 51.9933 333.693 48.4105 333.905 46.3034C334.116 44.1962 315.117 46.9356 305.617 49.2535C296.118 51.5713 274.375 57.0503 272.264 59.1574C270.153 61.2645 270.575 55.7861 271.842 54.5218C273.108 53.2575 275.641 51.7818 278.808 44.6176C281.974 37.4533 290.841 22.914 316.383 22.914C319.972 22.914 326.305 24.389 329.894 26.4961C325.672 22.914 321.45 19.7533 311.106 19.7533C300.762 19.7533 283.874 24.5997 277.119 30.289C270.364 35.9782 268.464 40.1925 268.253 43.3532C268.042 46.5139 270.997 55.786 270.153 57.0503C226.945 121.743 12.5 78 -4.5 25" stroke="url(#paint0_linear_268_891)" stroke-width="2" stroke-linejoin="round"/>
<defs>
<linearGradient id="paint0_linear_268_891" x1="607.43" y1="-908.86" x2="607.43" y2="585.098" gradientUnits="userSpaceOnUse">
<stop stop-color="#4E5A9A"/>
<stop offset="1" stop-color="#23A9E0"/>
</linearGradient>
</defs>
</svg>
