<svg width="360" height="117" viewBox="0 0 360 117" fill="none" xmlns="http://www.w3.org/2000/svg">
<path d="M366 102.743C352.308 101.774 339.772 91.9312 338.548 86.5255L330.621 101.777L348.601 95.9854L339.128 23.0088L329.655 25.1325L329.075 102.743C327.141 102.936 322.888 102.897 321.341 101.198C319.795 99.4991 318.377 98.4309 317.862 98.1091L313.995 107.955L322.308 104.48L319.215 63.7444L313.415 65.2889L312.642 107.955L263.537 108.534C263.086 108.406 262.183 107.801 262.183 106.411C262.183 105.021 262.312 77.5161 262.377 63.9375C269.143 63.8732 283.527 63.7444 286.929 63.7444C291.182 63.7444 288.863 64.3236 285.769 64.3236C283.295 64.3236 283.449 64.3236 283.836 64.3236C284.094 65.8038 284.3 68.764 283.063 68.764C281.516 68.764 281.903 66.0612 281.903 61.6208C281.903 57.1804 281.516 49.6511 287.896 49.6511C289.958 49.5867 294.082 51.1183 294.082 57.7596C294.082 66.0612 294.082 65.675 293.889 66.8334C293.696 67.9918 294.276 68.764 295.049 68.764C295.822 68.764 295.822 66.6403 295.822 65.675C295.822 64.7097 295.629 63.9375 296.982 63.9375C298.065 63.9375 308.26 64.0662 313.222 64.1306L318.635 62.9722L299.882 62.393C299.882 61.1703 299.882 58.0299 299.882 55.2498C299.882 51.7747 296.982 49.6511 294.082 49.6511C291.183 49.6511 288.669 51.5817 288.283 54.4776C287.973 56.7943 288.154 60.205 288.283 61.6208C291.247 61.8782 295.938 62.393 290.989 62.393C286.04 62.393 279.647 62.393 277.07 62.393C277.263 49.9728 277.65 24.978 277.65 24.3602C277.65 23.588 277.65 23.0088 280.549 23.0088C283.449 23.0088 301.429 23.0088 304.329 23.0088C307.229 23.0088 307.035 23.588 302.782 23.9741C299.38 24.283 297.884 24.1028 297.562 23.9741C297.949 26.2265 297.988 30.7312 295.049 30.7312C291.376 30.7312 291.569 26.0978 293.309 26.0978C294.701 26.0978 294.662 26.7413 294.469 27.0631C294.598 25.5186 294.778 21.6188 294.469 18.3754C294.082 14.3211 293.502 1 303.942 1C314.382 1 313.415 11.0391 313.608 14.1281C313.763 16.5992 313.415 24.1672 313.222 27.6423C312.9 26.7413 311.289 25.1325 310.515 27.4492C309.935 29.1867 311.868 31.1173 313.608 31.1173C315.928 31.1173 315.928 28.4145 315.928 25.9047C315.928 23.3949 315.928 23.3949 319.022 23.3949C322.115 23.3949 328.301 23.9741 329.461 23.7811C330.389 23.6266 335.648 22.4296 338.161 21.8505C334.617 21.5931 326.909 21.0396 324.435 20.8852C322.888 20.7886 322.501 21.0782 322.501 19.5337L322.888 12.3905C323.146 8.59369 321.767 1 314.188 1C304.715 1 304.329 9.30157 304.329 11.4252C304.329 13.5489 304.329 17.9893 304.329 18.7615C304.329 19.5337 303.555 20.1129 306.842 20.1129C310.129 20.1129 314.768 21.0782 309.549 21.0782C304.329 21.0782 286.349 20.8852 284.609 20.8852C282.869 20.8852 283.836 20.6921 281.709 21.0782C279.583 21.4643 277.456 21.4643 276.683 22.2366C275.91 23.0088 275.716 23.0088 275.523 27.0631C275.368 30.3065 275.201 51.9678 275.136 62.393C271.012 62.4574 262.531 62.6633 261.603 62.9722C260.443 63.3583 260.443 65.2889 260.443 67.0265C260.443 68.764 260.443 105.445 260.443 106.411C260.443 107.376 260.83 108.534 258.704 108.534C257.002 108.534 246.514 109.049 237.493 109.049C170.558 109.049 114.4 127.393 -8 104.48" stroke="url(#paint0_linear_268_893)" stroke-width="2" stroke-linejoin="round"/>
<defs>
<linearGradient id="paint0_linear_268_893" x1="584.02" y1="-1259.87" x2="584.02" y2="108.92" gradientUnits="userSpaceOnUse">
<stop stop-color="#4E5A9A"/>
<stop offset="1" stop-color="#23A9E0"/>
</linearGradient>
</defs>
</svg>
